<?xml version="1.0" encoding="UTF-8" standalone="no"?>
<!DOCTYPE svg PUBLIC "-//W3C//DTD SVG 1.1//EN"
 "http://www.w3.org/Graphics/SVG/1.1/DTD/svg11.dtd">
<!-- Generated by graphviz version 2.40.1 (20161225.0304)
 -->
<!-- Title: state transitions Pages: 1 -->
<svg width="533pt" height="352pt"
 viewBox="0.00 0.00 533.00 352.00" xmlns="http://www.w3.org/2000/svg" xmlns:xlink="http://www.w3.org/1999/xlink">
<g id="graph0" class="graph" transform="scale(1 1) rotate(0) translate(4 348)">
<title>state transitions</title>
<polygon fill="#ffffff" stroke="transparent" points="-4,4 -4,-348 529,-348 529,4 -4,4"/>
<g id="clust1" class="cluster state regular">
<title>cluster_next_state</title>
<path fill="none" stroke="#000000" stroke-width="2" d="M20,-8C20,-8 505,-8 505,-8 511,-8 517,-14 517,-20 517,-20 517,-324 517,-324 517,-330 511,-336 505,-336 505,-336 20,-336 20,-336 14,-336 8,-330 8,-324 8,-324 8,-20 8,-20 8,-14 14,-8 20,-8"/>
<text text-anchor="start" x="235.3208" y="-317.2" font-family="Helvetica,sans-Serif" font-size="12.00" fill="#000000">next_state</text>
</g>
<!-- next_state -->
<!-- IDLE -->
<g id="node2" class="node state regular">
<title>IDLE</title>
<polygon fill="#ffffff" fill-opacity="0.003922" stroke="transparent" stroke-width="2" points="226,-298 170,-298 170,-262 226,-262 226,-298"/>
<text text-anchor="start" x="184.6644" y="-276.2" font-family="Helvetica,sans-Serif" font-size="12.00" fill="#000000">IDLE</text>
<path fill="none" stroke="#000000" stroke-width="2" d="M182.3333,-263C182.3333,-263 213.6667,-263 213.6667,-263 219.3333,-263 225,-268.6667 225,-274.3333 225,-274.3333 225,-285.6667 225,-285.6667 225,-291.3333 219.3333,-297 213.6667,-297 213.6667,-297 182.3333,-297 182.3333,-297 176.6667,-297 171,-291.3333 171,-285.6667 171,-285.6667 171,-274.3333 171,-274.3333 171,-268.6667 176.6667,-263 182.3333,-263"/>
</g>
<!-- PS2 -->
<g id="node3" class="node state regular">
<title>PS2</title>
<polygon fill="#ffffff" fill-opacity="0.003922" stroke="transparent" stroke-width="2" points="174,-134 118,-134 118,-98 174,-98 174,-134"/>
<text text-anchor="start" x="134.6618" y="-112.2" font-family="Helvetica,sans-Serif" font-size="12.00" fill="#000000">PS2</text>
<path fill="none" stroke="#000000" stroke-width="2" d="M130.3333,-99C130.3333,-99 161.6667,-99 161.6667,-99 167.3333,-99 173,-104.6667 173,-110.3333 173,-110.3333 173,-121.6667 173,-121.6667 173,-127.3333 167.3333,-133 161.6667,-133 161.6667,-133 130.3333,-133 130.3333,-133 124.6667,-133 119,-127.3333 119,-121.6667 119,-121.6667 119,-110.3333 119,-110.3333 119,-104.6667 124.6667,-99 130.3333,-99"/>
</g>
<!-- IDLE&#45;&gt;PS2 -->
<g id="edge1" class="edge transition">
<title>IDLE&#45;&gt;PS2</title>
<path fill="none" stroke="#000000" d="M180.4961,-261.7641C170.1602,-249.7723 157.9379,-233.1685 151.834,-216 143.6367,-192.9433 142.6882,-165.0212 143.4964,-144.5481"/>
<polygon fill="#000000" stroke="#000000" points="147.0054,-144.483 144.0705,-134.3029 140.0164,-144.0913 147.0054,-144.483"/>
<text text-anchor="start" x="151" y="-195" font-family="Helvetica,sans-Serif" font-size="10.00" fill="#000000">ps2_vld = &#39;1&#39; &#160;&#160;</text>
</g>
<!-- RX -->
<g id="node4" class="node state regular">
<title>RX</title>
<polygon fill="#ffffff" fill-opacity="0.003922" stroke="transparent" stroke-width="2" points="283,-216 227,-216 227,-180 283,-180 283,-216"/>
<text text-anchor="start" x="246.6672" y="-194.2" font-family="Helvetica,sans-Serif" font-size="12.00" fill="#000000">RX</text>
<path fill="none" stroke="#000000" stroke-width="2" d="M239.3333,-181C239.3333,-181 270.6667,-181 270.6667,-181 276.3333,-181 282,-186.6667 282,-192.3333 282,-192.3333 282,-203.6667 282,-203.6667 282,-209.3333 276.3333,-215 270.6667,-215 270.6667,-215 239.3333,-215 239.3333,-215 233.6667,-215 228,-209.3333 228,-203.6667 228,-203.6667 228,-192.3333 228,-192.3333 228,-186.6667 233.6667,-181 239.3333,-181"/>
</g>
<!-- IDLE&#45;&gt;RX -->
<g id="edge2" class="edge transition">
<title>IDLE&#45;&gt;RX</title>
<path fill="none" stroke="#000000" d="M210.6501,-261.8015C218.2511,-250.8668 228.0575,-236.7593 236.5156,-224.5916"/>
<polygon fill="#000000" stroke="#000000" points="239.5514,-226.3564 242.3852,-216.1476 233.8036,-222.361 239.5514,-226.3564"/>
<text text-anchor="start" x="230" y="-236" font-family="Helvetica,sans-Serif" font-size="10.00" fill="#000000">not (ps2_vld = &#39;1&#39;) &#160;&#160;</text>
</g>
<!-- PS2&#45;&gt;PS2 -->
<g id="edge3" class="edge transition">
<title>PS2&#45;&gt;PS2</title>
<path fill="none" stroke="#000000" d="M174.0183,-120.8247C185.888,-121.1883 196,-119.5801 196,-116 196,-113.5387 191.2205,-112.0094 184.3762,-111.4121"/>
<polygon fill="#000000" stroke="#000000" points="184.0957,-107.9049 174.0183,-111.1753 183.9356,-114.903 184.0957,-107.9049"/>
<text text-anchor="start" x="196" y="-113" font-family="Helvetica,sans-Serif" font-size="10.00" fill="#000000">ps2_vld = &#39;1&#39; &#160;&#160;</text>
</g>
<!-- TX -->
<g id="node5" class="node state regular">
<title>TX</title>
<polygon fill="#ffffff" fill-opacity="0.003922" stroke="transparent" stroke-width="2" points="109,-52 53,-52 53,-16 109,-16 109,-52"/>
<text text-anchor="start" x="73.3332" y="-30.2" font-family="Helvetica,sans-Serif" font-size="12.00" fill="#000000">TX</text>
<path fill="none" stroke="#000000" stroke-width="2" d="M65.3333,-17C65.3333,-17 96.6667,-17 96.6667,-17 102.3333,-17 108,-22.6667 108,-28.3333 108,-28.3333 108,-39.6667 108,-39.6667 108,-45.3333 102.3333,-51 96.6667,-51 96.6667,-51 65.3333,-51 65.3333,-51 59.6667,-51 54,-45.3333 54,-39.6667 54,-39.6667 54,-28.3333 54,-28.3333 54,-22.6667 59.6667,-17 65.3333,-17"/>
</g>
<!-- PS2&#45;&gt;TX -->
<g id="edge4" class="edge transition">
<title>PS2&#45;&gt;TX</title>
<path fill="none" stroke="#000000" d="M117.9968,-99.501C110.9048,-94.2915 103.8039,-88.0337 98.5,-81 94.203,-75.3016 90.8635,-68.4338 88.309,-61.7296"/>
<polygon fill="#000000" stroke="#000000" points="91.6047,-60.5489 85.1078,-52.1798 84.9676,-62.7737 91.6047,-60.5489"/>
<text text-anchor="start" x="98" y="-72" font-family="Helvetica,sans-Serif" font-size="10.00" fill="#000000">not (ps2_vld = &#39;1&#39;) &#160;&#160;</text>
</g>
<!-- RX&#45;&gt;PS2 -->
<g id="edge6" class="edge transition">
<title>RX&#45;&gt;PS2</title>
<path fill="none" stroke="#000000" d="M230.48,-179.8878C223.18,-174.4731 215.172,-168.5112 207.834,-163 198.0772,-155.6722 187.4919,-147.6522 177.8829,-140.345"/>
<polygon fill="#000000" stroke="#000000" points="179.8122,-137.4149 169.7354,-134.1424 175.572,-142.9846 179.8122,-137.4149"/>
<text text-anchor="start" x="207" y="-154" font-family="Helvetica,sans-Serif" font-size="10.00" fill="#000000">ps2_vld = &#39;1&#39; &#160;&#160;</text>
</g>
<!-- RX&#45;&gt;RX -->
<g id="edge7" class="edge transition">
<title>RX&#45;&gt;RX</title>
<path fill="none" stroke="#000000" d="M283.0183,-202.8247C294.888,-203.1883 305,-201.5801 305,-198 305,-195.5387 300.2205,-194.0094 293.3762,-193.4121"/>
<polygon fill="#000000" stroke="#000000" points="293.0957,-189.9049 283.0183,-193.1753 292.9356,-196.903 293.0957,-189.9049"/>
<text text-anchor="start" x="305" y="-201" font-family="Helvetica,sans-Serif" font-size="10.00" fill="#000000">not (uart_rx_done = &#39;1&#39;) &#160;&#160;</text>
<text text-anchor="start" x="305" y="-189" font-family="Helvetica,sans-Serif" font-size="10.00" fill="#000000">not (ps2_vld = &#39;1&#39;) &#160;&#160;</text>
</g>
<!-- DEC -->
<g id="node6" class="node state regular">
<title>DEC</title>
<polygon fill="#ffffff" fill-opacity="0.003922" stroke="transparent" stroke-width="2" points="334,-134 278,-134 278,-98 334,-98 334,-134"/>
<text text-anchor="start" x="293.3358" y="-112.2" font-family="Helvetica,sans-Serif" font-size="12.00" fill="#000000">DEC</text>
<path fill="none" stroke="#000000" stroke-width="2" d="M290.3333,-99C290.3333,-99 321.6667,-99 321.6667,-99 327.3333,-99 333,-104.6667 333,-110.3333 333,-110.3333 333,-121.6667 333,-121.6667 333,-127.3333 327.3333,-133 321.6667,-133 321.6667,-133 290.3333,-133 290.3333,-133 284.6667,-133 279,-127.3333 279,-121.6667 279,-121.6667 279,-110.3333 279,-110.3333 279,-104.6667 284.6667,-99 290.3333,-99"/>
</g>
<!-- RX&#45;&gt;DEC -->
<g id="edge5" class="edge transition">
<title>RX&#45;&gt;DEC</title>
<path fill="none" stroke="#000000" d="M266.3186,-179.8015C273.0534,-168.973 281.7234,-155.033 289.2405,-142.9466"/>
<polygon fill="#000000" stroke="#000000" points="292.4037,-144.4877 294.7131,-134.1476 286.4596,-140.7907 292.4037,-144.4877"/>
<text text-anchor="start" x="283" y="-154" font-family="Helvetica,sans-Serif" font-size="10.00" fill="#000000">uart_rx_done = &#39;1&#39; &#160;&#160;</text>
</g>
<!-- TX&#45;&gt;IDLE -->
<g id="edge8" class="edge transition">
<title>TX&#45;&gt;IDLE</title>
<path fill="none" stroke="#000000" d="M71.4569,-52.1166C58.7888,-77.8946 38,-126.9793 38,-171.5 38,-239 38,-239 38,-239 38,-263.9929 112.1851,-273.9592 159.5265,-277.7747"/>
<polygon fill="#000000" stroke="#000000" points="159.5307,-281.2847 169.7635,-278.5387 160.0518,-274.3041 159.5307,-281.2847"/>
<text text-anchor="start" x="39" y="-154" font-family="Helvetica,sans-Serif" font-size="10.00" fill="#000000">uart_tx_done = &#39;1&#39; &#160;&#160;</text>
</g>
<!-- TX&#45;&gt;TX -->
<g id="edge9" class="edge transition">
<title>TX&#45;&gt;TX</title>
<path fill="none" stroke="#000000" d="M109.0183,-38.8247C120.888,-39.1883 131,-37.5801 131,-34 131,-31.5387 126.2205,-30.0094 119.3762,-29.4121"/>
<polygon fill="#000000" stroke="#000000" points="119.0957,-25.9049 109.0183,-29.1753 118.9356,-32.903 119.0957,-25.9049"/>
<text text-anchor="start" x="131" y="-31" font-family="Helvetica,sans-Serif" font-size="10.00" fill="#000000">not (uart_tx_done = &#39;1&#39;) &#160;&#160;</text>
</g>
<!-- DEC&#45;&gt;TX -->
<g id="edge11" class="edge transition">
<title>DEC&#45;&gt;TX</title>
<path fill="none" stroke="#000000" d="M277.6105,-102.473C274.0621,-100.908 270.4637,-99.3803 267,-98 245.0841,-89.2667 238.8356,-89.1984 216.714,-81 203.3591,-76.0506 200.3723,-73.902 187,-69 164.4825,-60.7455 138.9654,-52.2929 118.6105,-45.7625"/>
<polygon fill="#000000" stroke="#000000" points="119.6592,-42.4233 109.0685,-42.7203 117.5329,-49.0926 119.6592,-42.4233"/>
<text text-anchor="start" x="216" y="-72" font-family="Helvetica,sans-Serif" font-size="10.00" fill="#000000">not (dst_matched = &#39;1&#39;) &#160;&#160;</text>
</g>
<!-- VGA -->
<g id="node7" class="node state regular">
<title>VGA</title>
<polygon fill="#ffffff" fill-opacity="0.003922" stroke="transparent" stroke-width="2" points="395,-52 339,-52 339,-16 395,-16 395,-52"/>
<text text-anchor="start" x="354.3298" y="-30.2" font-family="Helvetica,sans-Serif" font-size="12.00" fill="#000000">VGA</text>
<path fill="none" stroke="#000000" stroke-width="2" d="M351.3333,-17C351.3333,-17 382.6667,-17 382.6667,-17 388.3333,-17 394,-22.6667 394,-28.3333 394,-28.3333 394,-39.6667 394,-39.6667 394,-45.3333 388.3333,-51 382.6667,-51 382.6667,-51 351.3333,-51 351.3333,-51 345.6667,-51 340,-45.3333 340,-39.6667 340,-39.6667 340,-28.3333 340,-28.3333 340,-22.6667 345.6667,-17 351.3333,-17"/>
</g>
<!-- DEC&#45;&gt;VGA -->
<g id="edge10" class="edge transition">
<title>DEC&#45;&gt;VGA</title>
<path fill="none" stroke="#000000" d="M319.5379,-97.8015C327.7512,-86.7606 338.3708,-72.4851 347.4816,-60.2378"/>
<polygon fill="#000000" stroke="#000000" points="350.3395,-62.2601 353.5,-52.1476 344.7231,-58.082 350.3395,-62.2601"/>
<text text-anchor="start" x="340" y="-72" font-family="Helvetica,sans-Serif" font-size="10.00" fill="#000000">dst_matched = &#39;1&#39; &#160;&#160;</text>
</g>
<!-- VGA&#45;&gt;IDLE -->
<g id="edge12" class="edge transition">
<title>VGA&#45;&gt;IDLE</title>
<path fill="none" stroke="#000000" d="M395.0322,-41.7931C408.6391,-47.1221 423.7864,-55.6947 432,-69 455.9402,-107.7808 435,-125.9249 435,-171.5 435,-239 435,-239 435,-239 435,-258.9174 303.3584,-271.9199 236.2962,-277.2516"/>
<polygon fill="#000000" stroke="#000000" points="235.817,-273.7782 226.1177,-278.0413 236.3585,-280.7572 235.817,-273.7782"/>
<text text-anchor="start" x="436" y="-154" font-family="Helvetica,sans-Serif" font-size="10.00" fill="#000000">vga_done = &#39;1&#39; &#160;&#160;</text>
</g>
<!-- VGA&#45;&gt;VGA -->
<g id="edge13" class="edge transition">
<title>VGA&#45;&gt;VGA</title>
<path fill="none" stroke="#000000" d="M395.0183,-38.8247C406.888,-39.1883 417,-37.5801 417,-34 417,-31.5387 412.2205,-30.0094 405.3762,-29.4121"/>
<polygon fill="#000000" stroke="#000000" points="405.0957,-25.9049 395.0183,-29.1753 404.9356,-32.903 405.0957,-25.9049"/>
<text text-anchor="start" x="417" y="-31" font-family="Helvetica,sans-Serif" font-size="10.00" fill="#000000">not (vga_done = &#39;1&#39;) &#160;&#160;</text>
</g>
</g>
</svg>
